# xmcd
#
# Track frame offsets:
#	150
#	16297
#	30907
#	43122
#	58642
#	72257
#	85962
#	103587
#	118660
#	128820
#	140940
#	150090
#	156667
#	165565
# Disc length: 2390 seconds
# Revision: 1
# Processed by: cddbd v1.5.2PL0 Copyright (c) Steve Scherf et al.
#
# Submitted via: libkcddb 0.31
#
DISCID=b709540e
DTITLE=Grupo Folclórico Côco Babaçu do Maranhão - Babaçueira
DYEAR=1900
DGENRE=Folklore
TTITLE0=Antônio José - Meus Senhores
TTITLE1=Antônio José - A Carroça
TTITLE2=Antônio José - Juntar Côco
TTITLE3=Wilson dos Anjos - Babaçueira
TTITLE4=Wilson dos Anjos - Tributo ao Mestre Rufa
TTITLE5=Wilson dos Anjos - A Vida na Roça
TTITLE6=Antônio José - Coqueuira Tu Vai Pra Mata
TTITLE7=Wilson dos Anjos - Morena Tu Quebra o Côco
TTITLE8=Antônio José - Sentar Pra Quebrar o Côco
TTITLE9=Antônio José - Já Quebramos o Côco
TTITLE10=Wilson dos Anjos - São João Combina
TTITLE11=Côco com C
TTITLE12=Antônio José - A Lua Saiu
TTITLE13=Antônio José - Pout-Porri
EXTD=Folclore Maranhense
EXTT0=Thed Wilson
EXTT1=Thed Wilson
EXTT2=Thed Wilson
EXTT3=Amado Edilson
EXTT4=Wilson dos Anjos
EXTT5=Wilson dos Anjos
EXTT6=Thed Wilson
EXTT7=Thed Wilson
EXTT8=Thed Wilson
EXTT9=Thed Wilson
EXTT10=Thed Wilson
EXTT11=Thed Wilson
EXTT12=Thed Wilson
EXTT13=Thed Wilson
PLAYORDER=
